<svg width="1354" height="907" viewBox="0 0 1354 907" fill="none" xmlns="http://www.w3.org/2000/svg">
<g clip-path="url(#clip0)">
<rect width="1354" height="907" fill="#EDF1FF"/>
<rect x="165" y="208.57" width="716.743" height="490.86" rx="17.5422" fill="white" fill-opacity="0.01"/>
<g clip-path="url(#clip1)">
<ellipse cx="594.983" cy="440.723" rx="198.593" ry="198.77" fill="#D6E4FF"/>
<path fill-rule="evenodd" clip-rule="evenodd" d="M887.173 463.744C887.182 463.68 887.2 463.616 887.229 463.556C887.32 463.363 887.501 463.227 887.712 463.194L898.953 461.409C899.473 461.327 899.61 460.897 899.64 460.767C899.67 460.637 899.733 460.191 899.3 459.89L872.069 440.983C871.8 440.796 871.468 440.779 871.182 440.937C870.895 441.095 870.733 441.385 870.748 441.712L872.335 475.331C872.36 475.853 872.769 476.039 872.894 476.083C873.018 476.127 873.453 476.242 873.802 475.852L881.648 467.096C881.788 466.94 881.996 466.861 882.205 466.885C882.414 466.91 882.598 467.034 882.699 467.218L890.957 482.328C891.043 482.485 891.236 482.545 891.397 482.464L896.172 480.052C896.283 479.996 896.325 479.902 896.34 479.851C896.354 479.8 896.371 479.698 896.308 479.591L887.256 464.158C887.182 464.032 887.154 463.886 887.173 463.744Z" fill="#597EF7"/>
</g>
<path fill-rule="evenodd" clip-rule="evenodd" d="M203.408 376.707C208.398 376.707 212.452 380.712 212.533 385.682L212.534 385.833C213.165 402.497 229.254 406.839 234.735 407.836C239.682 407.942 243.66 411.986 243.66 416.959C243.66 421.999 239.574 426.085 234.534 426.085C230.446 426.085 226.985 423.397 225.824 419.691L225.788 419.73C221.186 397.185 207.161 395.108 203.449 394.959L203.408 394.959C203.259 394.959 203.11 394.956 202.962 394.948C202.688 394.948 202.539 394.959 202.539 394.959L202.58 394.922C197.928 394.504 194.282 390.594 194.282 385.833C194.282 380.793 198.368 376.707 203.408 376.707Z" fill="#E4ECF7"/>
<path fill-rule="evenodd" clip-rule="evenodd" d="M263.001 360.298C264.607 362.308 264.284 365.241 262.279 366.851C261.392 367.562 260.325 367.896 259.271 367.873L259.27 367.872C248.505 369.246 246.766 375.889 246.491 377.711C246.49 377.718 246.489 377.725 246.489 377.733C246.48 377.809 246.47 377.885 246.458 377.961C246.443 378.099 246.44 378.174 246.44 378.174L246.423 378.151C245.951 380.49 243.766 382.121 241.354 381.854C238.8 381.571 236.959 379.268 237.241 376.709C237.52 374.176 239.776 372.342 242.299 372.58L242.376 372.588C250.848 373.202 253.95 365.289 254.765 362.557C254.925 361.424 255.5 360.347 256.462 359.575C258.467 357.965 261.395 358.289 263.001 360.298Z" fill="#E4ECF7"/>
<path fill-rule="evenodd" clip-rule="evenodd" d="M259.953 358.495C262.514 358.778 264.361 361.084 264.078 363.645C263.795 366.206 261.49 368.053 258.928 367.77C256.367 367.487 254.52 365.182 254.803 362.62C255.086 360.059 257.392 358.212 259.953 358.495Z" fill="#E4ECF7"/>
<rect x="119.854" y="240.134" width="716.743" height="490.86" rx="17.3756" fill="#F3F6FE" fill-opacity="0.05"/>
<path fill-rule="evenodd" clip-rule="evenodd" d="M187.584 1264.78C177.006 1263.47 169.35 1256.43 170.237 1245.82L189.233 1016.32C190.601 999.957 205.308 988.018 221.604 990.036C237.903 992.053 249.253 1007.22 246.59 1023.42L207.223 1250.69C205.494 1261.21 198.161 1266.09 187.584 1264.78Z" fill="#FFC999"/>
<path fill-rule="evenodd" clip-rule="evenodd" d="M317.15 1261.53C327.806 1261.78 336.758 1253.58 337.432 1242.94L351.847 1015.5C352.887 999.114 340.084 985.155 323.668 984.768C307.247 984.381 293.802 997.723 294.07 1014.14L297.767 1242.01C297.939 1252.67 306.493 1261.28 317.15 1261.53Z" fill="#FFC999"/>
<path fill-rule="evenodd" clip-rule="evenodd" d="M328.668 772.324C348.013 772.778 363.191 789.064 362.275 808.389L352.436 1016.14C351.678 1032.14 338.284 1044.61 322.265 1044.23C306.246 1043.85 293.454 1030.77 293.452 1014.75L293.399 806.768C293.394 787.423 309.323 771.87 328.668 772.324Z" fill="#FFC999"/>
<path fill-rule="evenodd" clip-rule="evenodd" d="M247.722 779.141C228.517 776.765 211.121 790.659 209.201 809.909L188.558 1016.86C186.968 1032.8 198.394 1047.1 214.296 1049.07C230.198 1051.03 244.766 1039.95 247.114 1024.11L277.575 818.37C280.408 799.232 266.926 781.519 247.722 779.141Z" fill="#FFC999"/>
<path fill-rule="evenodd" clip-rule="evenodd" d="M381.881 450.582C381.881 450.582 406.874 442.778 417.963 468.735C444.199 473.783 441.765 501.903 441.765 501.903C441.765 501.903 457.617 521.151 434.621 535.987C436.125 558.067 410.752 558.067 410.752 558.067C410.752 558.067 407.507 575.83 387.598 571.913C369.836 590.929 331.102 593.878 314.442 576.767C290.741 601.156 239.983 584.131 242.924 564.857C211.187 567.981 190.613 537.088 204.502 505.832C186.771 485.703 200.781 469.906 200.781 469.906C200.781 469.906 188.098 419.182 222.611 406.56C236.483 375.935 279.625 391.863 279.625 391.863C279.625 391.863 304.976 382.228 318.019 403.477C348.042 403.295 349.245 419.617 353.661 432.775C380.121 430.067 381.881 450.582 381.881 450.582Z" fill="#373A65"/>
<path fill-rule="evenodd" clip-rule="evenodd" d="M296.558 438.469C276.592 445.359 267.86 430.815 267.86 430.815C267.86 430.815 255.879 410.284 255.86 424.07C255.848 431.396 243.286 423.685 239.427 432.111C236.83 437.78 246.43 443.015 237.514 458.453C232.347 467.394 258.731 469.65 245.411 486.74C245.411 486.74 259.393 502.766 241.203 511.631L242.518 532.832C243.283 545.17 254.528 554.157 266.738 552.185C278.378 550.306 286.165 539.185 283.951 527.607L279.102 502.276C308.788 497.529 303.71 456.509 296.558 438.469Z" fill="#FFC999"/>
<path fill-rule="evenodd" clip-rule="evenodd" d="M467.939 534.484L483.002 481.27C483.002 481.27 507.672 438.092 516.581 440.747C524.856 444.368 506.151 456.728 502.443 468.927C510.319 468.363 506.742 480.075 506.742 480.075C506.742 480.075 513.011 479.848 511.325 489.389C517.147 492.833 512.48 503.785 512.48 503.785C512.48 503.785 500.784 532.632 487.825 551.873C487.825 551.873 466.325 568.47 467.939 534.484Z" fill="#FFC999"/>
<path fill-rule="evenodd" clip-rule="evenodd" d="M471.286 516.504C471.286 516.504 473.534 498.253 475.215 488.958C476.895 479.66 472.967 462.869 479.75 467.317C484.31 470.31 483.516 480.298 483.351 487.665C483.188 495.029 495.088 512.486 486.22 524.571C480.228 532.738 470.782 533.809 471.286 516.504Z" fill="#FFC999"/>
<path fill-rule="evenodd" clip-rule="evenodd" d="M485.116 530.862C478.94 526.758 470.627 528.237 466.246 534.22L381.679 649.693C374.257 660.561 377.153 675.396 388.118 682.679C399.178 690.024 414.119 686.819 421.189 675.583L489.642 549.005C493.054 542.698 491.091 534.832 485.116 530.862Z" fill="#FFC999"/>
<path d="M262.158 466.237C262.59 465.64 263.425 465.506 264.021 465.938L264.19 466.052C264.302 466.125 264.455 466.219 264.647 466.331C265.197 466.651 265.838 466.974 266.559 467.276C269.907 468.677 273.656 469.14 277.602 468.111C278.315 467.925 279.043 468.352 279.229 469.065C279.415 469.778 278.988 470.506 278.275 470.692C273.709 471.883 269.379 471.348 265.529 469.737C264.094 469.136 263.049 468.527 262.457 468.099C261.86 467.667 261.726 466.833 262.158 466.237Z" fill="#F5222D"/>
<path d="M261.254 445.125C261.955 445.014 262.613 445.491 262.725 446.191C263.502 451.06 260.474 455.635 255.892 456.37C251.312 457.1 247.006 453.696 246.228 448.828C246.116 448.128 246.593 447.47 247.294 447.358C247.994 447.246 248.652 447.723 248.764 448.423C249.325 451.937 252.358 454.334 255.486 453.835C258.618 453.333 260.75 450.111 260.189 446.595C260.077 445.895 260.554 445.237 261.254 445.125Z" fill="#373A65"/>
<path d="M293.381 440.881C294.045 440.774 294.67 441.226 294.776 441.89C295.547 446.702 292.889 451.213 288.699 451.883C284.51 452.552 280.577 449.097 279.806 444.286C279.7 443.622 280.152 442.997 280.816 442.891C281.481 442.784 282.105 443.236 282.212 443.9C282.784 447.474 285.565 449.917 288.315 449.478C291.064 449.038 292.943 445.849 292.37 442.276C292.264 441.612 292.716 440.987 293.381 440.881Z" fill="#373A65"/>
<path d="M247.873 432.199C252.088 430.567 256.537 430.486 260.673 431.32L261.338 431.463C261.955 431.605 262.427 431.74 262.729 431.843C263.401 432.07 263.761 432.799 263.533 433.47C263.305 434.142 262.576 434.501 261.905 434.274L261.622 434.185C261.286 434.087 260.792 433.963 260.165 433.836C256.468 433.091 252.493 433.163 248.801 434.593C247.081 435.259 245.489 436.206 244.048 437.463C243.513 437.928 242.702 437.873 242.236 437.339C241.77 436.804 241.826 435.994 242.36 435.528C244.031 434.071 245.88 432.971 247.873 432.199Z" fill="#373A65"/>
<path fill-rule="evenodd" clip-rule="evenodd" d="M415.89 680.667C426.798 673.067 429.473 658.066 421.868 647.162L347.772 540.922C340.167 530.021 325.164 527.344 314.256 534.945C303.351 542.545 300.675 557.546 308.279 568.45L382.376 674.69C389.98 685.593 404.983 688.268 415.89 680.667Z" fill="#FFC999"/>
<path d="M307.273 568.224C307.579 568.01 307.987 568.053 308.243 568.308L308.331 568.413L339.301 612.817L377.873 585.311C378.177 585.094 378.586 585.133 378.844 585.384L378.934 585.488C379.15 585.792 379.112 586.201 378.86 586.459L378.756 586.548L339.559 614.501C339.253 614.72 338.841 614.679 338.583 614.423L338.494 614.317L307.084 569.282C306.844 568.938 306.928 568.464 307.273 568.224Z" fill="#1D39C4"/>
<path fill-rule="evenodd" clip-rule="evenodd" d="M339.689 613.486L308.277 568.449C300.705 557.593 303.395 542.516 314.257 534.946C325.117 527.376 340.199 530.065 347.771 540.924L378.884 585.531L339.689 613.486Z" fill="#597EF7"/>
<path fill-rule="evenodd" clip-rule="evenodd" d="M329.125 573.965C334.268 585.168 343.796 604.451 344.98 617.191C346.902 637.847 333.45 653.215 333.45 653.215C333.45 653.215 333.314 647.142 332.009 700.655C270.389 711.461 231.101 699.971 231.101 699.971L232.302 685.786L222.295 652.254C222.295 652.254 216.215 639.766 203.723 611.909C195.039 592.541 195.641 568.532 196.818 555.695C197.322 550.195 194.709 538.713 200.167 537.855C218.714 534.939 231.584 533.368 231.584 533.368L233.841 526.435C234.143 524.336 235.941 522.778 238.061 522.778H285.746C287.693 522.778 289.39 524.095 289.873 525.98L293.216 533.368L318.347 534.265C322.749 535.128 326.555 548.914 327.014 553.374L329.125 573.965Z" fill="#597EF7"/>
<path d="M230.981 535.262C231.369 534.955 231.916 534.982 232.271 535.305L232.381 535.424L275.435 589.691L292.144 539.07C292.299 538.6 292.771 538.323 293.245 538.398L293.403 538.436C293.873 538.591 294.151 539.063 294.076 539.537L294.037 539.695L276.751 592.072C276.519 592.775 275.644 592.975 275.128 592.493L275.023 592.379L230.819 536.663C230.477 536.231 230.549 535.604 230.981 535.262Z" fill="#C9D4EA"/>
<path fill-rule="evenodd" clip-rule="evenodd" d="M288.144 595.973C292.668 603.598 290.629 613.161 283.592 617.334C276.555 621.505 267.183 618.704 262.662 611.079C258.138 603.452 260.175 593.889 267.214 589.718C274.251 585.548 283.621 588.349 288.144 595.973Z" fill="#C9D4EA"/>
<path fill-rule="evenodd" clip-rule="evenodd" d="M289.77 595.936C294.293 603.561 292.254 613.124 285.217 617.294C278.181 621.468 268.808 618.666 264.285 611.039C259.763 603.415 261.8 593.852 268.839 589.681C275.874 585.51 285.246 588.311 289.77 595.936Z" fill="#F0F0F5"/>
<path fill-rule="evenodd" clip-rule="evenodd" d="M286.898 597.264C290.41 603.185 288.827 610.609 283.362 613.847C277.898 617.086 270.623 614.913 267.113 608.993C263.6 603.072 265.181 595.649 270.647 592.41C276.11 589.169 283.386 591.344 286.898 597.264Z" fill="#FAAD14"/>
<path d="M196.839 554.934C197.259 554.947 197.59 555.296 197.578 555.716L197.512 558.738L197.501 559.315C197.399 565.337 197.388 571.699 197.529 577.653L197.574 579.367C197.763 585.828 198.134 591.022 198.716 594.515C199.377 598.475 201.914 605.204 205.847 613.875C206.534 615.39 207.258 616.951 208.014 618.55C210.096 622.955 212.328 627.455 214.56 631.807L215.687 633.993L217.501 637.453L217.585 637.626L233.745 685.792L233.781 686.109L232.405 700.087L233.601 700.322C233.943 700.387 234.305 700.454 234.688 700.523L235.279 700.629C238.17 701.14 241.521 701.651 245.29 702.128C271.027 705.387 300.157 705.403 330.166 700.051L331.389 699.828L331.492 695.939C331.568 693.392 331.683 689.894 331.832 685.58L332.423 668.904L332.937 654.872L333.032 654.532L333.4 653.848L333.989 652.719C334.155 652.394 334.328 652.054 334.507 651.697L334.779 651.151C336.093 648.495 337.408 645.615 338.635 642.613C340.379 638.345 341.797 634.191 342.773 630.29C343.717 626.517 344.22 623.085 344.22 620.076C344.22 612.542 343.22 606.76 340.978 600.795C339.855 597.809 338.413 594.726 336.336 590.791L335.302 588.866C333.906 586.306 331.209 581.444 329.648 578.633L328.46 576.492L328.366 576.154L327.885 563.427C327.87 563.007 328.197 562.654 328.616 562.639C328.989 562.624 329.31 562.881 329.388 563.233L329.405 563.369L329.878 575.914L336.107 587.17L337.253 589.277L338.095 590.871C339.981 594.489 341.329 597.41 342.401 600.261C344.71 606.4 345.74 612.363 345.74 620.076C345.74 623.223 345.22 626.774 344.248 630.658C343.253 634.637 341.812 638.858 340.042 643.188C338.978 645.792 337.85 648.304 336.711 650.661L336.142 651.826C335.862 652.39 335.595 652.92 335.341 653.414L334.449 655.108L333.206 689.929C333.023 695.406 332.917 699.004 332.905 700.254L332.903 700.464C332.903 700.83 332.642 701.144 332.282 701.211C301.454 706.928 271.506 706.98 245.099 703.636C241.684 703.204 238.609 702.743 235.903 702.28L235.014 702.126C234.401 702.017 233.835 701.913 233.317 701.815L231.419 701.435C231.09 701.363 230.854 701.085 230.825 700.76L230.826 700.619L232.251 686.119L216.193 638.227L215.371 636.672C214.718 635.429 213.99 634.029 213.207 632.501C210.968 628.135 208.729 623.621 206.639 619.199L205.525 616.82C205.343 616.428 205.164 616.039 204.987 615.653L204.462 614.503C200.475 605.712 197.906 598.899 197.216 594.765C196.568 590.879 196.182 585.015 196.008 577.689C195.887 572.565 195.878 567.145 195.943 561.897L196.002 558.155L196.058 555.673C196.07 555.254 196.42 554.923 196.839 554.934Z" fill="#1D39C4"/>
<path fill-rule="evenodd" clip-rule="evenodd" d="M151.462 698.586L150.776 698.321C138.573 693.584 132.521 679.855 137.258 667.655L182.449 551.293C187.188 539.094 200.924 533.045 213.127 537.782L213.813 538.047C226.017 542.784 232.068 556.513 227.329 568.715L182.14 685.072C177.402 697.274 163.666 703.324 151.462 698.586Z" fill="#FFC999"/>
<path fill-rule="evenodd" clip-rule="evenodd" d="M232.067 711.317C210.417 713.011 146.574 848.091 127.162 896.995C129.746 906.845 157.993 925.909 157.993 925.909C157.993 925.909 156.305 933.749 155.262 938.46C173.737 953.649 209.468 961.9 209.468 961.9L209.546 968.638C266.673 994.934 343.172 969.732 343.172 969.732C343.172 969.732 344.599 968.272 343.576 962.987C369.513 962.686 425.052 929.791 425.052 929.791L417.157 913.516L440 890.143C440 890.143 378.314 776.702 359.327 744.97C342.658 717.115 327.023 709.094 327.023 709.094C327.023 709.094 270.48 708.31 232.067 711.317Z" fill="#4E5C93"/>
<path fill-rule="evenodd" clip-rule="evenodd" d="M331.159 711.314L329.529 698.943C329.529 698.943 280.667 699.235 232.746 696.835C231.536 702.327 230.144 712.211 230.144 712.211C234.173 708.903 277.702 718.564 331.159 711.314Z" fill="#4E5C93"/>
<path d="M329.377 735.441C329.807 735.23 330.317 735.369 330.585 735.747L330.665 735.882L424.942 928.415C425.142 928.824 425.029 929.316 424.671 929.596L424.079 930.045L423.114 930.753C422.878 930.924 422.628 931.103 422.364 931.29C420.481 932.626 418.266 934.114 415.732 935.715C408.498 940.285 400.155 944.853 390.815 949.116C376.295 955.742 360.715 961.008 344.257 964.407C343.737 964.514 343.227 964.179 343.12 963.659C343.012 963.139 343.347 962.63 343.868 962.522C360.177 959.154 375.622 953.935 390.016 947.365C399.274 943.14 407.54 938.613 414.703 934.088C416.93 932.682 418.905 931.366 420.619 930.166L421.628 929.452L422.863 928.549L328.936 736.728C328.726 736.298 328.865 735.788 329.243 735.521L329.377 735.441Z" fill="#253368"/>
<path d="M215.301 775.425C215.489 774.928 216.044 774.678 216.541 774.866C216.989 775.035 217.237 775.501 217.145 775.955L217.101 776.106L155.489 939.042L156.5 939.668L157.725 940.406C158.791 941.039 159.969 941.718 161.252 942.433C166.389 945.298 172.145 948.163 178.383 950.837C188.548 955.196 198.98 958.61 209.415 960.719C209.936 960.824 210.273 961.332 210.168 961.852C210.062 962.373 209.555 962.71 209.034 962.605C198.459 960.468 187.904 957.013 177.624 952.606C171.322 949.904 165.507 947.009 160.315 944.113C158.756 943.244 157.349 942.428 156.105 941.679L154.814 940.89L153.783 940.237C153.448 940.018 153.289 939.617 153.37 939.235L153.411 939.093L215.301 775.425Z" fill="#253368"/>
<path d="M256.597 714.954L256.753 714.975C257.222 715.069 257.543 715.489 257.526 715.952L257.5 716.147L253.813 734.751C252.544 741.191 251.191 748.086 249.768 755.371L248.985 759.382C243.049 789.821 237.113 820.816 231.518 850.789L230.233 857.687C229.55 861.364 228.875 865.006 228.21 868.612L224.648 888.052C219.399 916.922 214.947 942.456 211.457 963.882L210.636 968.947L211.952 969.384C213.345 969.837 214.747 970.273 216.158 970.692L218.279 971.307C252.541 981.005 289.158 980.455 323.739 973.698C329.226 972.626 334.176 971.477 338.504 970.329L339.756 969.993C340.358 969.828 340.926 969.669 341.458 969.517L343.02 969.057L300.118 754.1C300.025 753.632 300.289 753.174 300.723 753.012L300.874 752.969C301.343 752.875 301.8 753.14 301.963 753.573L302.006 753.724L345.079 969.533C345.174 970.012 344.896 970.487 344.431 970.637L343.02 971.067L341.989 971.366C341.269 971.572 340.487 971.79 339.642 972.017L338.998 972.189C334.629 973.348 329.638 974.506 324.108 975.586C289.256 982.397 252.35 982.951 217.755 973.158C214.886 972.346 212.05 971.465 209.249 970.513C208.805 970.362 208.534 969.913 208.608 969.45L209.803 962.072C213.257 940.945 217.626 915.919 222.754 887.709L224.999 875.426C226.087 869.498 227.201 863.465 228.341 857.335C233.882 827.523 239.791 796.568 245.726 766.049L250.868 739.749L255.621 715.73C255.714 715.261 256.134 714.94 256.597 714.954Z" fill="#253368"/>
<path d="M279.686 718.662C280.163 718.636 280.579 718.962 280.679 719.415L280.701 719.57L290.824 899.053C290.854 899.584 290.448 900.038 289.917 900.069C289.44 900.095 289.024 899.769 288.924 899.317L288.902 899.162L278.779 719.678C278.749 719.148 279.155 718.693 279.686 718.662Z" fill="#253368"/>
<path d="M305.411 714.072C305.868 713.93 306.351 714.146 306.558 714.56L306.616 714.705L344.625 837.033C344.782 837.541 344.499 838.08 343.991 838.237C343.534 838.379 343.052 838.164 342.845 837.749L342.787 837.604L304.778 715.276C304.62 714.769 304.904 714.229 305.411 714.072Z" fill="#253368"/>
<path d="M235.288 711.249C256.855 712.257 277.791 712.711 296.429 712.709L302.788 712.69C309.356 712.651 315.157 712.552 319.586 712.414L321.693 712.341C322.336 712.317 322.917 712.292 323.428 712.267L324.458 712.211C324.801 712.189 325.084 712.169 325.3 712.15L325.558 712.122L325.669 712.079C325.811 712.035 325.963 712.024 326.115 712.05L326.267 712.089L326.39 712.104C326.622 712.146 326.648 712.296 326.846 713.423L326.451 713.835C326.331 713.95 326.296 713.952 326.209 713.958C326.135 713.98 326.056 713.996 325.96 714.011L325.803 714.032C325.67 714.048 325.5 714.065 325.296 714.081L324.576 714.131C323.651 714.188 322.349 714.246 320.753 714.301L317.44 714.4C313.088 714.512 307.715 714.59 301.754 714.62L300.696 714.625C280.984 714.702 258.458 714.258 235.199 713.171C234.668 713.146 234.257 712.695 234.282 712.165C234.307 711.634 234.758 711.224 235.288 711.249Z" fill="#253368"/>
<path fill-rule="evenodd" clip-rule="evenodd" d="M209.285 615.177L229.164 563.995C233.955 551.657 227.777 537.643 215.435 532.854C203.093 528.064 189.075 534.237 184.281 546.575L164.594 597.273L209.285 615.177Z" fill="#597EF7"/>
<path d="M285.563 538.569C285.983 538.569 286.323 538.909 286.323 539.329C286.323 539.702 286.054 540.012 285.699 540.077L285.563 540.089H244.778C244.358 540.089 244.018 539.748 244.018 539.329C244.018 538.956 244.287 538.645 244.641 538.581L244.778 538.569H285.563Z" fill="#1D39C4"/>
<path d="M229.102 563.973C229.254 563.581 229.694 563.387 230.086 563.539C230.433 563.674 230.626 564.037 230.557 564.391L230.519 564.523L210.641 615.703C210.505 616.054 210.137 616.245 209.782 616.173L209.649 616.133L164.958 598.229C164.568 598.073 164.379 597.63 164.535 597.241C164.674 596.894 165.039 596.706 165.392 596.778L165.523 596.818L209.502 614.436L229.102 563.973Z" fill="#1D39C4"/>
<path fill-rule="evenodd" clip-rule="evenodd" d="M276.681 702.229L316.11 594.741C316.761 592.97 318.472 591.811 320.359 591.866L418.113 594.655C421.149 594.741 423.182 597.81 422.079 600.64L381.24 705.166C380.584 706.849 378.963 707.955 377.158 707.958L280.81 708.128C277.755 708.132 275.629 705.094 276.681 702.229Z" fill="#4E5C93"/>
<path fill-rule="evenodd" clip-rule="evenodd" d="M281.887 701.117L320.63 595.503C321.416 593.357 323.487 591.956 325.772 592.021L424.736 594.846C426.859 594.906 428.282 597.05 427.507 599.029L386.106 705.003C385.379 706.865 383.586 708.091 381.587 708.096L286.886 708.261C283.187 708.268 280.612 704.59 281.887 701.117Z" fill="#373A65"/>
<path fill-rule="evenodd" clip-rule="evenodd" d="M333.743 602.69C334.797 603.966 334.31 606.11 332.65 607.477C330.993 608.847 328.796 608.921 327.742 607.645C326.687 606.368 327.175 604.224 328.832 602.857C330.491 601.487 332.689 601.413 333.743 602.69Z" fill="#4E5C93"/>
<path fill-rule="evenodd" clip-rule="evenodd" d="M332.377 603.92C332.924 604.582 332.671 605.696 331.81 606.406C330.949 607.116 329.806 607.156 329.261 606.494C328.714 605.83 328.967 604.716 329.828 604.006C330.686 603.296 331.829 603.258 332.377 603.92Z" fill="#FFC999"/>
<path fill-rule="evenodd" clip-rule="evenodd" d="M313.95 700.618C312.9 707.956 306.261 713.171 298.88 712.457L156.389 698.649C143.337 696.947 134.191 684.91 136.056 671.886C137.936 658.743 150.278 649.734 163.371 651.941L303.42 685.161C310.402 686.818 314.966 693.52 313.95 700.618Z" fill="#FFC999"/>
<path fill-rule="evenodd" clip-rule="evenodd" d="M313.973 717.926C313.973 717.926 281.277 714.613 277.072 700.059C273.263 686.88 285.956 681.498 285.956 681.498C285.956 681.498 297.727 674.15 312.943 671.614C322.968 669.946 342.356 668.703 343.944 673.849C346.017 680.558 323.991 680.687 323.951 685.797C323.91 691.039 328.463 691.35 338.581 695.461C344.907 698.03 348.85 696.436 353.797 699.636C363.466 705.891 352.092 724.492 313.973 717.926Z" fill="#FFC999"/>
<path d="M275.083 443.176C275.55 443.135 275.967 443.441 276.079 443.881L276.146 444.299C276.17 444.423 276.205 444.581 276.253 444.772C276.421 445.44 276.689 446.216 277.079 447.089C278.211 449.624 280.104 452.407 282.94 455.344C283.315 455.732 283.289 456.353 282.883 456.708L281.656 457.773C279.866 459.31 278.305 460.586 276.97 461.619L276.026 462.338L275.051 463.042C275.027 463.059 275.006 463.073 274.988 463.085C274.555 463.375 273.969 463.259 273.679 462.827C273.389 462.394 273.505 461.808 273.937 461.518L274.39 461.199L274.9 460.824C275.084 460.687 275.28 460.539 275.49 460.378L275.815 460.128C276.979 459.227 278.323 458.134 279.848 456.836L280.903 455.931L280.508 455.5C278.276 453.014 276.669 450.621 275.595 448.373L275.356 447.857C274.606 446.177 274.29 444.924 274.226 444.198C274.18 443.679 274.564 443.221 275.083 443.176Z" fill="#DD936F"/>
<path d="M259.288 500.267C259.462 499.776 260.001 499.519 260.492 499.692C266.751 501.904 272.977 502.523 278.987 501.646C279.502 501.571 279.981 501.928 280.057 502.443C280.132 502.958 279.775 503.437 279.259 503.512C272.945 504.434 266.41 503.784 259.863 501.47C259.372 501.297 259.114 500.758 259.288 500.267Z" fill="#DD936F"/>
<path d="M503.092 468.244C503.469 468.603 503.484 469.199 503.125 469.577L502.689 470.048L502.13 470.667C501.935 470.886 501.731 471.118 501.519 471.362C500.308 472.755 499.096 474.245 497.968 475.768C496.849 477.277 495.874 478.737 495.082 480.115C492.384 484.81 492.16 487.81 494.726 488.88C495.207 489.08 495.434 489.632 495.234 490.113C495.033 490.594 494.481 490.821 494 490.62C489.938 488.927 490.251 484.736 493.446 479.175C494.278 477.728 495.293 476.209 496.452 474.646C497.612 473.08 498.853 471.553 500.095 470.125L501.016 469.084L501.758 468.277C502.117 467.9 502.714 467.885 503.092 468.244Z" fill="#DD936F"/>
<path d="M506.744 479.855C507.061 480.268 506.983 480.86 506.57 481.177L506.11 481.538L505.522 482.014C505.317 482.183 505.101 482.362 504.878 482.55C503.603 483.625 502.328 484.777 501.14 485.958C499.876 487.215 498.787 488.431 497.929 489.573C495.641 492.616 495.284 494.621 496.92 495.624C497.602 496.042 498.369 496.135 499.254 495.929C500.547 495.628 502.008 494.707 503.502 493.356C504.18 492.743 504.818 492.084 505.396 491.425L505.836 490.909C505.957 490.763 506.05 490.645 506.113 490.562C506.429 490.148 507.021 490.068 507.435 490.384C507.85 490.699 507.93 491.291 507.614 491.705L507.298 492.101C507.164 492.263 507.002 492.454 506.814 492.668C506.191 493.379 505.503 494.089 504.767 494.755C503.057 496.301 501.35 497.377 499.681 497.765C498.338 498.078 497.064 497.924 495.934 497.232C492.987 495.426 493.552 492.256 496.421 488.44C497.34 487.218 498.486 485.937 499.81 484.621C501.037 483.4 502.35 482.214 503.663 481.108L504.326 480.557L505.422 479.68C505.835 479.363 506.427 479.441 506.744 479.855Z" fill="#DD936F"/>
<path d="M509.079 489.153C509.593 489.072 510.076 489.423 510.158 489.937C510.239 490.452 509.888 490.935 509.373 491.016C508.111 491.215 506.499 492.355 504.57 494.625C500.516 499.392 499.677 502.458 500.882 503.163C502.129 503.892 505.09 502.544 506.992 499.824C507.663 498.864 509.136 499.746 508.606 500.791C506.238 505.463 503.461 508.721 500.008 511.255L499.147 511.865C497.701 512.868 497.172 513.154 493.181 515.259L492.249 515.762C486.833 518.758 484.647 521.39 483.396 527.623C483.293 528.134 482.796 528.465 482.286 528.362C481.775 528.26 481.444 527.763 481.546 527.252C482.959 520.215 485.606 517.201 491.816 513.849L495.46 511.911C496.849 511.155 497.336 510.831 498.404 510.084C500.471 508.638 502.281 506.94 503.904 504.814L503.967 504.726L503.735 504.822C502.426 505.319 501.154 505.385 500.155 504.91L499.93 504.791C497.241 503.219 498.406 498.962 503.132 493.403C505.325 490.822 507.287 489.436 509.079 489.153Z" fill="#DD936F"/>
<path d="M483.478 477.517C483.945 477.479 484.361 477.787 484.471 478.228L484.496 478.379L485.64 492.188L485.994 492.814L486.256 493.301C486.797 494.327 487.338 495.468 487.842 496.698C489.308 500.271 490.183 503.854 490.164 507.235C490.15 509.873 489.582 512.279 488.38 514.385C488.122 514.837 487.546 514.995 487.093 514.736C486.641 514.478 486.483 513.902 486.742 513.45C487.772 511.645 488.265 509.555 488.278 507.224C488.295 504.129 487.476 500.775 486.097 497.414C485.713 496.477 485.306 495.594 484.896 494.779L484.587 494.181C484.281 493.601 484.045 493.191 483.915 492.98C483.863 492.895 483.825 492.804 483.802 492.708L483.778 492.563L482.616 478.535C482.573 478.016 482.959 477.56 483.478 477.517Z" fill="#DD936F"/>
<path d="M325.035 699.175C325.346 698.757 325.937 698.671 326.354 698.982L326.597 699.154C326.891 699.355 327.336 699.638 327.928 699.981C329.26 700.753 330.833 701.527 332.636 702.25C338.866 704.75 346.163 706.028 354.406 705.424C354.926 705.385 355.378 705.776 355.416 706.295C355.454 706.814 355.064 707.266 354.544 707.304C346.001 707.931 338.419 706.603 331.934 704C330.044 703.242 328.39 702.428 326.982 701.613C326.61 701.397 326.275 701.192 325.976 701.001L325.691 700.815C325.467 700.667 325.312 700.557 325.227 700.495C324.81 700.183 324.723 699.593 325.035 699.175Z" fill="#DD936F"/>
<path d="M320.2 707.386C320.42 706.914 320.982 706.711 321.454 706.931C321.924 707.151 322.399 707.363 322.88 707.565C330.121 710.62 337.689 711.552 344.063 711.286L344.793 711.25C345.214 711.227 345.503 711.203 345.647 711.188C346.166 711.134 346.629 711.51 346.683 712.028C346.737 712.546 346.361 713.01 345.843 713.064L345.307 713.108C345.186 713.116 345.051 713.125 344.9 713.133C338.117 713.518 329.974 712.605 322.146 709.303C321.644 709.091 321.146 708.87 320.654 708.639C320.182 708.419 319.979 707.857 320.2 707.386Z" fill="#DD936F"/>
<path d="M312.09 712.064C312.358 711.618 312.938 711.474 313.384 711.743L313.598 711.863C313.861 712.005 314.271 712.206 314.833 712.452C316.103 713.009 317.658 713.568 319.504 714.092C323.573 715.247 328.439 716.057 334.135 716.368C334.655 716.396 335.054 716.841 335.026 717.361C334.997 717.881 334.553 718.279 334.033 718.251C328.197 717.933 323.193 717.099 318.989 715.906C317.06 715.359 315.424 714.77 314.076 714.179C313.252 713.819 312.7 713.532 312.411 713.358C311.965 713.09 311.821 712.51 312.09 712.064Z" fill="#DD936F"/>
<rect x="-47.3862" y="821.374" width="133.129" height="133.129" fill="#D6E4FF"/>
<path d="M20.8312 135.267C75.5199 135.267 119.854 90.9329 119.854 36.2442C119.854 -18.4445 75.5199 -62.7784 20.8312 -62.7784C-33.8575 -62.7784 -78.1914 -18.4445 -78.1914 36.2442C-78.1914 90.9329 -33.8575 135.267 20.8312 135.267Z" fill="white"/>
<g filter="url(#filter0_f)">
<path d="M1303.62 1026.99C1385.36 1026.99 1451.62 960.733 1451.62 878.994C1451.62 797.256 1385.36 730.994 1303.62 730.994C1221.89 730.994 1155.62 797.256 1155.62 878.994C1155.62 960.733 1221.89 1026.99 1303.62 1026.99Z" fill="#56CCF2"/>
</g>
</g>
<defs>
<filter id="filter0_f" x="1151.36" y="726.728" width="304.533" height="304.533" filterUnits="userSpaceOnUse" color-interpolation-filters="sRGB">
<feFlood flood-opacity="0" result="BackgroundImageFix"/>
<feBlend mode="normal" in="SourceGraphic" in2="BackgroundImageFix" result="shape"/>
<feGaussianBlur stdDeviation="2.13333" result="effect1_foregroundBlur"/>
</filter>
<clipPath id="clip0">
<rect width="1354" height="907" fill="white"/>
</clipPath>
<clipPath id="clip1">
<rect width="609.774" height="610.317" fill="white" transform="translate(289.798 135.267)"/>
</clipPath>
</defs>
</svg>
