<svg width="1366" height="672" viewBox="0 0 1366 672" fill="none" xmlns="http://www.w3.org/2000/svg">
<g clip-path="url(#clip0)">
<rect width="1366" height="672" fill="#EDF1FF"/>
<rect x="155" y="70" width="811" height="491" rx="17.5422" fill="white" fill-opacity="0.01"/>
<ellipse cx="689.505" cy="302.855" rx="198.593" ry="198.77" fill="#D6E4FF"/>
<path fill-rule="evenodd" clip-rule="evenodd" d="M147.695 195.828C152.685 195.828 156.739 199.833 156.82 204.803L156.821 204.954C157.451 221.618 173.541 225.959 179.022 226.957C183.969 227.063 187.947 231.107 187.947 236.08C187.947 241.12 183.861 245.206 178.821 245.206C174.732 245.206 171.272 242.517 170.111 238.812L170.075 238.85C165.472 216.306 151.448 214.229 147.735 214.079L147.695 214.08C147.545 214.08 147.397 214.076 147.249 214.069C146.974 214.069 146.826 214.08 146.826 214.08L146.867 214.043C142.215 213.624 138.569 209.715 138.569 204.954C138.569 199.914 142.655 195.828 147.695 195.828Z" fill="#CCD7E8"/>
<path fill-rule="evenodd" clip-rule="evenodd" d="M207.287 179.419C208.894 181.428 208.57 184.362 206.565 185.971C205.678 186.683 204.611 187.017 203.558 186.994L203.557 186.993C192.792 188.367 191.053 195.01 190.777 196.832C190.777 196.839 190.776 196.846 190.775 196.854C190.767 196.93 190.756 197.006 190.744 197.081C190.729 197.22 190.726 197.295 190.726 197.295L190.71 197.272C190.237 199.61 188.053 201.242 185.64 200.975C183.087 200.692 181.245 198.389 181.527 195.83C181.807 193.297 184.063 191.463 186.586 191.701L186.662 191.709C195.135 192.323 198.236 184.41 199.051 181.678C199.211 180.545 199.786 179.468 200.748 178.695C202.754 177.086 205.681 177.41 207.287 179.419Z" fill="#CCD7E8"/>
<path fill-rule="evenodd" clip-rule="evenodd" d="M204.24 177.616C206.801 177.899 208.648 180.204 208.365 182.766C208.082 185.327 205.776 187.174 203.215 186.891C200.654 186.608 198.807 184.302 199.09 181.741C199.373 179.18 201.679 177.333 204.24 177.616Z" fill="#CCD7E8"/>
<path fill-rule="evenodd" clip-rule="evenodd" d="M1057.69 415.12C1062.68 415.12 1066.74 419.124 1066.82 424.095L1066.82 424.246C1067.45 440.909 1083.54 445.251 1089.02 446.248C1093.97 446.354 1097.95 450.398 1097.95 455.371C1097.95 460.412 1093.86 464.497 1088.82 464.497C1084.73 464.497 1081.27 461.809 1080.11 458.103L1080.08 458.142C1075.47 435.597 1061.45 433.52 1057.74 433.371L1057.69 433.371C1057.55 433.371 1057.4 433.368 1057.25 433.361C1056.97 433.361 1056.83 433.371 1056.83 433.371L1056.87 433.334C1052.21 432.916 1048.57 429.006 1048.57 424.246C1048.57 419.205 1052.65 415.12 1057.69 415.12Z" fill="#C7D7ED"/>
<path fill-rule="evenodd" clip-rule="evenodd" d="M1117.29 398.711C1118.89 400.72 1118.57 403.653 1116.56 405.263C1115.68 405.974 1114.61 406.308 1113.56 406.285L1113.56 406.284C1102.79 407.659 1101.05 414.302 1100.78 416.123C1100.78 416.13 1100.78 416.138 1100.78 416.145C1100.77 416.222 1100.76 416.298 1100.74 416.373C1100.73 416.511 1100.73 416.586 1100.73 416.586L1100.71 416.564C1100.24 418.902 1098.05 420.533 1095.64 420.266C1093.09 419.984 1091.25 417.68 1091.53 415.121C1091.81 412.588 1094.06 410.755 1096.59 410.992L1096.66 411C1105.13 411.615 1108.24 403.701 1109.05 400.969C1109.21 399.836 1109.79 398.759 1110.75 397.987C1112.75 396.377 1115.68 396.702 1117.29 398.711Z" fill="#C7D7ED"/>
<path fill-rule="evenodd" clip-rule="evenodd" d="M1114.24 396.907C1116.8 397.19 1118.65 399.496 1118.37 402.057C1118.08 404.619 1115.78 406.466 1113.22 406.183C1110.65 405.9 1108.81 403.594 1109.09 401.032C1109.37 398.471 1111.68 396.624 1114.24 396.907Z" fill="#C7D7ED"/>
<rect x="126" y="274" width="208" height="339" rx="17.3756" fill="#F3F6FE" fill-opacity="0.05"/>
<path fill-rule="evenodd" clip-rule="evenodd" d="M265.271 848.739C260.307 848.05 256.714 844.336 257.131 838.734L266.045 717.632C266.687 708.999 273.589 702.699 281.237 703.764C288.886 704.828 294.213 712.829 292.963 721.378L274.488 841.306C273.677 846.854 270.235 849.431 265.271 848.739Z" fill="#FFC999"/>
<path fill-rule="evenodd" clip-rule="evenodd" d="M326.077 847.027C331.078 847.158 335.279 842.829 335.595 837.218L342.36 717.2C342.848 708.554 336.839 701.188 329.135 700.984C321.429 700.78 315.12 707.82 315.245 716.483L316.98 836.726C317.061 842.348 321.076 846.894 326.077 847.027Z" fill="#FFC999"/>
<path fill-rule="evenodd" clip-rule="evenodd" d="M331.482 588.882C340.561 589.121 347.684 597.715 347.254 607.912L342.637 717.536C342.281 725.98 335.995 732.561 328.477 732.362C320.959 732.163 314.956 725.256 314.955 716.805L314.93 607.057C314.928 596.849 322.403 588.642 331.482 588.882Z" fill="#FFC999"/>
<path fill-rule="evenodd" clip-rule="evenodd" d="M293.494 592.479C284.481 591.225 276.317 598.557 275.416 608.715L265.728 717.919C264.982 726.331 270.344 733.874 277.807 734.912C285.27 735.95 292.107 730.104 293.209 721.744L307.504 613.179C308.834 603.081 302.506 593.734 293.494 592.479Z" fill="#FFC999"/>
<path fill-rule="evenodd" clip-rule="evenodd" d="M356.455 419.105C356.455 419.105 368.184 414.987 373.388 428.684C385.701 431.348 384.558 446.186 384.558 446.186C384.558 446.186 391.998 456.343 381.206 464.172C381.912 475.823 370.004 475.823 370.004 475.823C370.004 475.823 368.481 485.196 359.138 483.129C350.802 493.164 332.625 494.72 324.806 485.691C313.683 498.56 289.862 489.577 291.243 479.406C276.348 481.054 266.693 464.753 273.211 448.26C264.89 437.638 271.465 429.302 271.465 429.302C271.465 429.302 265.512 402.536 281.709 395.876C288.22 379.716 308.466 388.121 308.466 388.121C308.466 388.121 320.364 383.037 326.485 394.249C340.574 394.153 341.139 402.766 343.211 409.709C355.629 408.28 356.455 419.105 356.455 419.105Z" fill="#373A65"/>
<path fill-rule="evenodd" clip-rule="evenodd" d="M316.413 412.713C307.043 416.35 302.945 408.675 302.945 408.675C302.945 408.675 297.322 397.841 297.313 405.116C297.308 408.981 291.412 404.913 289.601 409.359C288.383 412.35 292.888 415.112 288.703 423.259C286.279 427.977 298.661 429.167 292.41 438.185C292.41 438.185 298.972 446.642 290.435 451.32L291.052 462.507C291.411 469.017 296.688 473.759 302.419 472.719C307.881 471.728 311.535 465.859 310.496 459.75L308.221 446.383C322.152 443.878 319.769 422.233 316.413 412.713Z" fill="#FFC999"/>
<path fill-rule="evenodd" clip-rule="evenodd" d="M396.842 463.379L403.911 435.299C403.911 435.299 415.489 412.515 419.67 413.916C423.553 415.827 414.775 422.348 413.035 428.786C416.731 428.488 415.052 434.668 415.052 434.668C415.052 434.668 417.994 434.548 417.203 439.583C419.935 441.401 417.745 447.18 417.745 447.18C417.745 447.18 412.256 462.401 406.174 472.554C406.174 472.554 396.085 481.312 396.842 463.379Z" fill="#FFC999"/>
<path fill-rule="evenodd" clip-rule="evenodd" d="M398.413 453.891C398.413 453.891 399.468 444.26 400.256 439.356C401.045 434.449 399.202 425.589 402.385 427.936C404.525 429.515 404.152 434.786 404.075 438.673C403.999 442.559 409.583 451.771 405.421 458.148C402.609 462.458 398.176 463.023 398.413 453.891Z" fill="#FFC999"/>
<path fill-rule="evenodd" clip-rule="evenodd" d="M404.903 461.467C402.005 459.302 398.103 460.083 396.048 463.239L356.36 524.172C352.877 529.907 354.236 537.735 359.382 541.578C364.572 545.454 371.584 543.763 374.902 537.834L407.027 471.041C408.628 467.713 407.707 463.562 404.903 461.467Z" fill="#FFC999"/>
<path d="M300.269 427.366C300.472 427.051 300.863 426.981 301.143 427.209L301.222 427.269C301.275 427.307 301.347 427.357 301.437 427.416C301.695 427.585 301.996 427.755 302.334 427.915C303.905 428.654 305.665 428.898 307.517 428.355C307.851 428.257 308.193 428.482 308.28 428.858C308.368 429.235 308.167 429.619 307.833 429.717C305.69 430.345 303.657 430.063 301.851 429.213C301.177 428.896 300.687 428.575 300.409 428.349C300.129 428.121 300.066 427.681 300.269 427.366Z" fill="#F5222D"/>
<path d="M299.845 416.226C300.173 416.167 300.482 416.419 300.535 416.788C300.9 419.358 299.478 421.772 297.328 422.16C295.179 422.545 293.158 420.749 292.793 418.18C292.74 417.81 292.964 417.463 293.293 417.404C293.621 417.345 293.93 417.597 293.983 417.966C294.246 419.821 295.669 421.085 297.138 420.822C298.607 420.557 299.608 418.857 299.345 417.002C299.292 416.632 299.516 416.285 299.845 416.226Z" fill="#373A65"/>
<path d="M314.922 413.986C315.233 413.93 315.527 414.169 315.576 414.519C315.938 417.058 314.691 419.438 312.725 419.792C310.759 420.145 308.913 418.322 308.551 415.783C308.501 415.433 308.713 415.103 309.025 415.047C309.337 414.991 309.63 415.229 309.68 415.58C309.949 417.465 311.254 418.755 312.544 418.523C313.834 418.291 314.716 416.608 314.447 414.722C314.398 414.372 314.61 414.042 314.922 413.986Z" fill="#373A65"/>
<path d="M293.565 409.405C295.543 408.544 297.631 408.501 299.572 408.941L299.884 409.017C300.174 409.092 300.395 409.163 300.537 409.217C300.852 409.337 301.021 409.722 300.914 410.076C300.807 410.43 300.465 410.62 300.15 410.5L300.017 410.453C299.86 410.402 299.628 410.336 299.334 410.269C297.599 409.876 295.733 409.914 294 410.668C293.193 411.02 292.446 411.52 291.77 412.183C291.519 412.428 291.138 412.399 290.919 412.117C290.701 411.835 290.727 411.407 290.978 411.162C291.762 410.393 292.63 409.813 293.565 409.405Z" fill="#373A65"/>
<path fill-rule="evenodd" clip-rule="evenodd" d="M372.416 540.516C377.534 536.506 378.79 528.59 375.221 522.837L340.448 466.776C336.879 461.024 329.838 459.611 324.719 463.622C319.601 467.632 318.345 475.548 321.913 481.302L356.688 537.362C360.256 543.116 367.297 544.527 372.416 540.516Z" fill="#FFC999"/>
<path d="M321.441 481.182C321.585 481.07 321.777 481.093 321.897 481.227L321.938 481.282L336.472 504.713L354.574 490.199C354.717 490.085 354.909 490.105 355.03 490.238L355.072 490.293C355.174 490.453 355.155 490.669 355.037 490.805L354.988 490.852L336.593 505.602C336.45 505.717 336.256 505.696 336.135 505.561L336.093 505.505L321.353 481.741C321.24 481.559 321.28 481.309 321.441 481.182Z" fill="#1D39C4"/>
<path fill-rule="evenodd" clip-rule="evenodd" d="M336.654 505.067L321.913 481.301C318.359 475.573 319.621 467.617 324.719 463.623C329.815 459.628 336.894 461.047 340.447 466.777L355.049 490.315L336.654 505.067Z" fill="#597EF7"/>
<path fill-rule="evenodd" clip-rule="evenodd" d="M331.697 484.212C334.11 490.123 338.582 500.299 339.137 507.021C340.039 517.921 333.727 526.031 333.727 526.031C333.727 526.031 333.663 522.826 333.05 551.064C304.132 556.766 285.694 550.703 285.694 550.703L286.257 543.217L281.562 525.524C281.562 525.524 278.708 518.934 272.845 504.234C268.77 494.014 269.053 481.345 269.605 474.571C269.842 471.669 268.615 465.61 271.177 465.157C279.881 463.619 285.921 462.79 285.921 462.79L286.98 459.131C287.121 458.024 287.965 457.202 288.96 457.202H311.339C312.252 457.202 313.049 457.896 313.276 458.892L314.844 462.79L326.638 463.263C328.704 463.718 330.491 470.993 330.706 473.347L331.697 484.212Z" fill="#597EF7"/>
<path d="M285.637 463.79C285.819 463.627 286.076 463.642 286.243 463.812L286.295 463.875L306.5 492.51L314.341 465.799C314.414 465.551 314.636 465.404 314.858 465.444L314.932 465.464C315.153 465.546 315.283 465.795 315.248 466.045L315.23 466.128L307.117 493.767C307.008 494.138 306.598 494.243 306.355 493.989L306.306 493.929L285.561 464.528C285.401 464.301 285.435 463.97 285.637 463.79Z" fill="#C9D4EA"/>
<path fill-rule="evenodd" clip-rule="evenodd" d="M312.464 495.825C314.587 499.849 313.63 504.895 310.328 507.097C307.026 509.298 302.627 507.82 300.505 503.796C298.382 499.772 299.338 494.726 302.642 492.525C305.944 490.324 310.341 491.802 312.464 495.825Z" fill="#C9D4EA"/>
<path fill-rule="evenodd" clip-rule="evenodd" d="M313.227 495.806C315.35 499.829 314.393 504.875 311.091 507.076C307.788 509.278 303.39 507.8 301.267 503.775C299.145 499.752 300.101 494.706 303.404 492.505C306.706 490.304 311.104 491.782 313.227 495.806Z" fill="#F0F0F5"/>
<path fill-rule="evenodd" clip-rule="evenodd" d="M311.879 496.507C313.528 499.631 312.785 503.548 310.22 505.257C307.656 506.966 304.241 505.819 302.594 502.695C300.946 499.571 301.687 495.654 304.252 493.945C306.816 492.235 310.231 493.382 311.879 496.507Z" fill="#FAAD14"/>
<path d="M269.615 474.17C269.812 474.176 269.967 474.361 269.961 474.582L269.93 476.177L269.926 476.482C269.877 479.659 269.872 483.016 269.938 486.158L269.959 487.063C270.048 490.472 270.222 493.212 270.495 495.056C270.806 497.145 271.996 500.696 273.842 505.272C274.165 506.071 274.504 506.895 274.859 507.738C275.836 510.063 276.884 512.437 277.931 514.734L278.46 515.888L279.311 517.713L279.351 517.805L286.935 543.221L286.951 543.388L286.306 550.764L286.867 550.888C287.027 550.922 287.197 550.957 287.377 550.994L287.655 551.05C289.011 551.319 290.584 551.589 292.353 551.841C304.431 553.56 318.102 553.569 332.185 550.745L332.759 550.627L332.807 548.575C332.843 547.231 332.897 545.385 332.967 543.109L333.244 534.309L333.486 526.905L333.53 526.726L333.703 526.364L333.979 525.769C334.057 525.597 334.138 525.418 334.222 525.23L334.35 524.942C334.967 523.54 335.584 522.02 336.159 520.436C336.978 518.184 337.643 515.992 338.102 513.933C338.544 511.943 338.78 510.132 338.78 508.544C338.78 504.568 338.311 501.517 337.259 498.37C336.732 496.794 336.055 495.167 335.08 493.091L334.595 492.075C333.94 490.724 332.674 488.158 331.942 486.675L331.384 485.545L331.34 485.367L331.115 478.651C331.107 478.43 331.261 478.244 331.458 478.235C331.633 478.228 331.783 478.363 331.82 478.549L331.828 478.621L332.05 485.241L334.973 491.18L335.511 492.292L335.906 493.133C336.791 495.042 337.424 496.584 337.927 498.088C339.01 501.327 339.494 504.474 339.494 508.544C339.494 510.204 339.25 512.078 338.794 514.128C338.327 516.227 337.651 518.454 336.82 520.74C336.321 522.113 335.791 523.439 335.257 524.683L334.989 525.297C334.858 525.595 334.733 525.875 334.614 526.135L334.195 527.029L333.612 545.404C333.526 548.294 333.476 550.192 333.47 550.852L333.47 550.962C333.47 551.156 333.347 551.322 333.178 551.357C318.711 554.374 304.656 554.401 292.263 552.637C290.66 552.408 289.217 552.166 287.947 551.921L287.53 551.84C287.243 551.782 286.977 551.728 286.734 551.676L285.843 551.475C285.688 551.437 285.578 551.29 285.564 551.119L285.565 551.044L286.233 543.393L278.698 518.121L278.312 517.301C278.005 516.645 277.664 515.906 277.296 515.1C276.245 512.796 275.195 510.414 274.214 508.081L273.691 506.826C273.606 506.619 273.521 506.414 273.438 506.21L273.192 505.603C271.321 500.964 270.115 497.369 269.791 495.187C269.488 493.137 269.306 490.043 269.225 486.177C269.168 483.473 269.164 480.613 269.194 477.844L269.222 475.87L269.248 474.56C269.254 474.338 269.418 474.164 269.615 474.17Z" fill="#1D39C4"/>
<path fill-rule="evenodd" clip-rule="evenodd" d="M248.319 549.972L247.997 549.832C242.27 547.332 239.43 540.088 241.653 533.65L262.862 472.249C265.085 465.811 271.532 462.619 277.259 465.119L277.581 465.259C283.308 467.759 286.148 475.003 283.924 481.442L262.717 542.841C260.493 549.28 254.047 552.472 248.319 549.972Z" fill="#FFC999"/>
<path fill-rule="evenodd" clip-rule="evenodd" d="M286.147 556.69C275.987 557.584 246.025 628.862 236.915 654.668C238.128 659.866 251.384 669.925 251.384 669.925C251.384 669.925 250.592 674.062 250.103 676.548C258.773 684.563 275.541 688.917 275.541 688.917L275.578 692.472C302.388 706.348 338.289 693.05 338.289 693.05C338.289 693.05 338.959 692.279 338.478 689.491C350.651 689.332 376.715 671.974 376.715 671.974L373.01 663.386L383.73 651.052C383.73 651.052 354.781 591.192 345.871 574.448C338.047 559.749 330.71 555.517 330.71 555.517C330.71 555.517 304.174 555.103 286.147 556.69Z" fill="#4E5C93"/>
<path fill-rule="evenodd" clip-rule="evenodd" d="M332.651 556.688L331.886 550.16C331.886 550.16 308.955 550.314 286.466 549.048C285.898 551.946 285.245 557.161 285.245 557.161C287.136 555.416 307.564 560.514 332.651 556.688Z" fill="#4E5C93"/>
<path d="M331.815 569.419C332.017 569.308 332.256 569.382 332.382 569.581L332.419 569.652L376.664 671.248C376.757 671.463 376.704 671.723 376.536 671.871L376.258 672.108L375.806 672.481C375.695 672.571 375.578 672.666 375.454 672.765C374.57 673.47 373.53 674.255 372.341 675.1C368.946 677.511 365.031 679.921 360.648 682.171C353.834 685.668 346.522 688.446 338.798 690.24C338.554 690.296 338.315 690.12 338.264 689.845C338.214 689.571 338.371 689.302 338.615 689.245C346.269 687.468 353.517 684.714 360.273 681.247C364.617 679.018 368.497 676.629 371.859 674.241C372.903 673.499 373.83 672.805 374.635 672.172L375.108 671.795L375.688 671.318L331.608 570.098C331.509 569.872 331.574 569.603 331.752 569.461L331.815 569.419Z" fill="#253368"/>
<path d="M278.279 590.518C278.367 590.256 278.628 590.124 278.861 590.223C279.071 590.312 279.187 590.558 279.144 590.798L279.124 590.877L250.209 676.855L250.683 677.186L251.259 677.575C251.759 677.909 252.312 678.267 252.914 678.645C255.325 680.156 258.026 681.668 260.953 683.08C265.724 685.379 270.62 687.181 275.517 688.294C275.761 688.349 275.919 688.617 275.87 688.892C275.82 689.167 275.582 689.344 275.338 689.289C270.375 688.161 265.422 686.338 260.597 684.013C257.64 682.587 254.911 681.059 252.474 679.531C251.742 679.073 251.082 678.642 250.498 678.247L249.892 677.831L249.409 677.486C249.252 677.37 249.177 677.159 249.215 676.957L249.234 676.882L278.279 590.518Z" fill="#253368"/>
<path d="M297.659 558.609L297.732 558.62C297.953 558.669 298.103 558.891 298.095 559.135L298.083 559.239L296.353 569.056C295.757 572.454 295.122 576.092 294.454 579.936L294.087 582.053C291.301 598.115 288.515 614.47 285.89 630.286L285.287 633.926C284.966 635.866 284.649 637.788 284.337 639.691L282.666 649.949C280.202 665.183 278.113 678.657 276.475 689.963L276.09 692.636L276.707 692.866C277.361 693.105 278.019 693.335 278.681 693.556L279.677 693.881C295.756 698.998 312.94 698.708 329.169 695.143C331.744 694.577 334.067 693.971 336.098 693.365L336.685 693.187C336.968 693.1 337.235 693.017 337.485 692.936L338.217 692.694L318.084 579.266C318.04 579.018 318.164 578.777 318.368 578.691L318.438 578.668C318.659 578.619 318.873 578.759 318.949 578.988L318.97 579.067L339.184 692.945C339.229 693.198 339.098 693.448 338.88 693.527L338.218 693.754L337.734 693.912C337.396 694.021 337.029 694.136 336.632 694.255L336.33 694.346C334.28 694.958 331.937 695.569 329.342 696.139C312.986 699.733 295.666 700.025 279.431 694.858C278.084 694.429 276.753 693.964 275.439 693.462C275.23 693.382 275.103 693.145 275.138 692.901L275.699 689.008C277.32 677.86 279.37 664.654 281.777 649.768L282.83 643.286C283.341 640.159 283.864 636.975 284.399 633.74C286.999 618.009 289.772 601.675 292.557 585.57L294.971 571.693L297.201 559.018C297.245 558.771 297.442 558.602 297.659 558.609Z" fill="#253368"/>
<path d="M308.495 560.565C308.719 560.552 308.914 560.724 308.961 560.963L308.971 561.044L313.722 655.754C313.736 656.034 313.545 656.274 313.296 656.29C313.072 656.304 312.877 656.132 312.83 655.893L312.82 655.811L308.069 561.102C308.055 560.822 308.246 560.582 308.495 560.565Z" fill="#253368"/>
<path d="M320.568 558.143C320.782 558.069 321.009 558.182 321.106 558.401L321.133 558.478L338.971 623.027C339.045 623.295 338.911 623.58 338.673 623.663C338.459 623.738 338.232 623.624 338.135 623.405L338.108 623.329L320.27 558.779C320.196 558.511 320.33 558.227 320.568 558.143Z" fill="#253368"/>
<path d="M287.659 556.654C297.78 557.186 307.605 557.425 316.352 557.424L319.336 557.414C322.419 557.394 325.142 557.341 327.22 557.269L328.209 557.23C328.511 557.217 328.783 557.204 329.023 557.191L329.506 557.161C329.668 557.15 329.8 557.139 329.902 557.129L330.023 557.115L330.075 557.092C330.141 557.069 330.213 557.063 330.284 557.076L330.355 557.097L330.413 557.105C330.522 557.127 330.534 557.206 330.627 557.801L330.442 558.019C330.386 558.079 330.369 558.08 330.328 558.083C330.293 558.095 330.256 558.104 330.211 558.111L330.138 558.123C330.075 558.131 329.996 558.14 329.899 558.148L329.562 558.175C329.128 558.205 328.517 558.235 327.768 558.264L326.213 558.316C324.171 558.376 321.649 558.417 318.851 558.433L318.355 558.435C309.104 558.476 298.533 558.242 287.617 557.668C287.368 557.655 287.175 557.417 287.187 557.137C287.199 556.857 287.41 556.641 287.659 556.654Z" fill="#253368"/>
<path fill-rule="evenodd" clip-rule="evenodd" d="M275.456 505.959L284.785 478.951C287.033 472.44 284.134 465.046 278.342 462.518C272.55 459.991 265.971 463.249 263.721 469.759L254.482 496.511L275.456 505.959Z" fill="#597EF7"/>
<path d="M311.253 465.534C311.45 465.534 311.61 465.714 311.61 465.935C311.61 466.132 311.483 466.296 311.317 466.33L311.253 466.336H292.113C291.915 466.336 291.756 466.157 291.756 465.935C291.756 465.738 291.882 465.574 292.048 465.541L292.113 465.534H311.253Z" fill="#1D39C4"/>
<path d="M284.756 478.939C284.827 478.733 285.034 478.63 285.217 478.71C285.381 478.782 285.471 478.973 285.439 479.16L285.421 479.23L276.092 506.236C276.028 506.421 275.856 506.522 275.689 506.484L275.627 506.463L254.653 497.015C254.47 496.933 254.381 496.7 254.454 496.494C254.52 496.311 254.691 496.212 254.857 496.25L254.918 496.271L275.557 505.567L284.756 478.939Z" fill="#1D39C4"/>
<path fill-rule="evenodd" clip-rule="evenodd" d="M307.085 551.894L325.589 495.175C325.894 494.241 326.697 493.629 327.583 493.658L373.459 495.13C374.884 495.175 375.837 496.795 375.32 498.288L356.154 553.444C355.846 554.332 355.086 554.916 354.239 554.917L309.022 555.007C307.588 555.009 306.591 553.406 307.085 551.894Z" fill="#4E5C93"/>
<path fill-rule="evenodd" clip-rule="evenodd" d="M309.528 551.307L327.71 495.577C328.079 494.445 329.05 493.705 330.123 493.74L376.567 495.23C377.563 495.262 378.231 496.393 377.867 497.437L358.438 553.358C358.096 554.34 357.255 554.987 356.317 554.99L311.874 555.077C310.138 555.081 308.929 553.14 309.528 551.307Z" fill="#373A65"/>
<path fill-rule="evenodd" clip-rule="evenodd" d="M333.864 499.369C334.358 500.043 334.13 501.174 333.351 501.896C332.573 502.618 331.542 502.657 331.047 501.984C330.552 501.31 330.781 500.179 331.559 499.458C332.338 498.735 333.369 498.696 333.864 499.369Z" fill="#4E5C93"/>
<path fill-rule="evenodd" clip-rule="evenodd" d="M333.223 500.019C333.48 500.368 333.361 500.956 332.957 501.33C332.553 501.705 332.016 501.726 331.76 501.377C331.504 501.026 331.622 500.439 332.026 500.064C332.429 499.689 332.966 499.669 333.223 500.019Z" fill="#FFC999"/>
<path fill-rule="evenodd" clip-rule="evenodd" d="M324.575 551.044C324.082 554.916 320.966 557.668 317.502 557.291L250.631 550.005C244.506 549.107 240.214 542.755 241.089 535.883C241.971 528.947 247.763 524.194 253.908 525.358L319.633 542.888C322.909 543.762 325.052 547.298 324.575 551.044Z" fill="#FFC999"/>
<path fill-rule="evenodd" clip-rule="evenodd" d="M324.586 560.177C324.586 560.177 309.241 558.429 307.268 550.749C305.48 543.795 311.437 540.955 311.437 540.955C311.437 540.955 316.961 537.078 324.102 535.739C328.807 534.859 337.906 534.203 338.651 536.919C339.624 540.459 329.287 540.527 329.268 543.224C329.249 545.989 331.385 546.153 336.134 548.323C339.103 549.678 340.953 548.837 343.275 550.526C347.813 553.827 342.475 563.642 324.586 560.177Z" fill="#FFC999"/>
<path d="M306.335 415.197C306.554 415.176 306.75 415.337 306.802 415.569L306.834 415.79C306.845 415.855 306.861 415.939 306.884 416.04C306.963 416.392 307.088 416.801 307.271 417.262C307.803 418.6 308.691 420.069 310.022 421.618C310.198 421.823 310.186 422.151 309.995 422.338L309.419 422.9C308.579 423.711 307.847 424.384 307.22 424.93L306.777 425.309L306.32 425.68C306.308 425.689 306.298 425.697 306.29 425.703C306.087 425.856 305.812 425.795 305.676 425.567C305.54 425.338 305.594 425.029 305.797 424.876L306.009 424.708L306.249 424.51C306.335 424.438 306.427 424.359 306.526 424.275L306.678 424.143C307.225 423.667 307.855 423.091 308.571 422.406L309.066 421.928L308.881 421.701C307.833 420.389 307.079 419.126 306.575 417.94L306.463 417.668C306.111 416.781 305.963 416.12 305.932 415.737C305.911 415.463 306.091 415.221 306.335 415.197Z" fill="#DD936F"/>
<path d="M298.922 445.323C299.004 445.064 299.257 444.928 299.487 445.02C302.424 446.187 305.346 446.514 308.167 446.051C308.409 446.011 308.633 446.199 308.669 446.471C308.704 446.743 308.537 446.996 308.295 447.036C305.331 447.522 302.264 447.179 299.192 445.958C298.961 445.866 298.841 445.582 298.922 445.323Z" fill="#DD936F"/>
<path d="M413.339 428.425C413.516 428.614 413.524 428.929 413.355 429.129L413.15 429.377L412.888 429.704C412.796 429.819 412.701 429.942 412.601 430.07C412.033 430.806 411.464 431.592 410.934 432.396C410.41 433.192 409.952 433.962 409.58 434.689C408.314 437.167 408.209 438.75 409.413 439.314C409.639 439.42 409.745 439.711 409.651 439.965C409.557 440.219 409.298 440.338 409.072 440.233C407.166 439.339 407.313 437.128 408.813 434.193C409.203 433.43 409.679 432.628 410.223 431.803C410.768 430.977 411.35 430.171 411.933 429.418L412.365 428.868L412.714 428.443C412.882 428.244 413.162 428.236 413.339 428.425Z" fill="#DD936F"/>
<path d="M415.053 434.552C415.202 434.77 415.165 435.082 414.971 435.249L414.756 435.44L414.48 435.692C414.383 435.781 414.282 435.875 414.178 435.974C413.579 436.541 412.981 437.149 412.423 437.772C411.83 438.436 411.319 439.077 410.916 439.68C409.843 441.286 409.675 442.344 410.443 442.873C410.763 443.094 411.123 443.143 411.538 443.034C412.145 442.875 412.83 442.389 413.532 441.676C413.85 441.353 414.149 441.005 414.42 440.657L414.627 440.385C414.684 440.308 414.727 440.246 414.757 440.202C414.905 439.984 415.183 439.941 415.378 440.108C415.572 440.274 415.61 440.587 415.461 440.805L415.313 441.014C415.25 441.1 415.174 441.2 415.086 441.313C414.794 441.688 414.471 442.063 414.126 442.414C413.323 443.23 412.522 443.798 411.739 444.003C411.108 444.168 410.51 444.087 409.98 443.721C408.597 442.769 408.862 441.096 410.209 439.082C410.64 438.437 411.178 437.761 411.799 437.067C412.375 436.423 412.991 435.797 413.607 435.213L413.918 434.922L414.433 434.46C414.627 434.293 414.905 434.334 415.053 434.552Z" fill="#DD936F"/>
<path d="M416.149 439.459C416.39 439.416 416.617 439.601 416.655 439.872C416.693 440.144 416.528 440.399 416.287 440.441C415.695 440.547 414.938 441.148 414.033 442.346C412.131 444.861 411.737 446.479 412.302 446.851C412.888 447.236 414.277 446.525 415.17 445.089C415.485 444.583 416.176 445.048 415.927 445.599C414.816 448.065 413.513 449.784 411.892 451.121L411.488 451.443C410.81 451.972 410.561 452.123 408.688 453.234L408.251 453.499C405.709 455.08 404.683 456.469 404.096 459.758C404.048 460.028 403.815 460.202 403.575 460.148C403.335 460.094 403.18 459.832 403.228 459.563C403.891 455.849 405.133 454.259 408.048 452.49L409.758 451.468C410.409 451.068 410.638 450.898 411.139 450.503C412.109 449.74 412.959 448.845 413.72 447.723L413.75 447.676L413.641 447.727C413.027 447.989 412.43 448.024 411.961 447.773L411.855 447.71C410.593 446.881 411.14 444.634 413.358 441.701C414.388 440.339 415.308 439.608 416.149 439.459Z" fill="#DD936F"/>
<path d="M404.135 433.319C404.354 433.298 404.549 433.461 404.601 433.694L404.612 433.773L405.149 441.06L405.315 441.39L405.438 441.647C405.692 442.188 405.946 442.791 406.183 443.44C406.871 445.325 407.281 447.216 407.272 449C407.266 450.392 406.999 451.662 406.435 452.773C406.314 453.011 406.043 453.094 405.831 452.958C405.619 452.822 405.545 452.518 405.666 452.279C406.15 451.327 406.381 450.224 406.387 448.994C406.395 447.361 406.011 445.591 405.364 443.817C405.183 443.323 404.992 442.857 404.8 442.427L404.655 442.112C404.511 441.806 404.401 441.589 404.34 441.478C404.315 441.433 404.297 441.385 404.286 441.335L404.275 441.258L403.73 433.856C403.71 433.582 403.891 433.341 404.135 433.319Z" fill="#DD936F"/>
<path d="M329.777 550.283C329.923 550.062 330.2 550.017 330.396 550.181L330.51 550.272C330.648 550.377 330.857 550.527 331.135 550.708C331.76 551.115 332.498 551.523 333.345 551.905C336.268 553.224 339.693 553.899 343.561 553.58C343.805 553.56 344.017 553.766 344.035 554.04C344.053 554.314 343.87 554.552 343.626 554.572C339.617 554.903 336.058 554.202 333.015 552.829C332.128 552.429 331.352 551.999 330.691 551.569C330.516 551.455 330.359 551.347 330.219 551.246L330.085 551.148C329.98 551.07 329.907 551.012 329.868 550.979C329.671 550.815 329.631 550.503 329.777 550.283Z" fill="#DD936F"/>
<path d="M327.508 554.615C327.612 554.366 327.875 554.259 328.096 554.375C328.317 554.491 328.54 554.603 328.766 554.71C332.164 556.322 335.716 556.814 338.707 556.673L339.05 556.655C339.247 556.642 339.383 556.63 339.451 556.622C339.694 556.593 339.911 556.792 339.937 557.065C339.962 557.338 339.785 557.583 339.542 557.611L339.291 557.635C339.234 557.639 339.17 557.644 339.1 557.648C335.916 557.851 332.095 557.369 328.422 555.627C328.186 555.515 327.952 555.398 327.721 555.277C327.5 555.16 327.404 554.864 327.508 554.615Z" fill="#DD936F"/>
<path d="M323.702 557.084C323.828 556.849 324.1 556.773 324.309 556.914L324.41 556.978C324.533 557.052 324.726 557.159 324.989 557.289C325.586 557.582 326.315 557.878 327.181 558.154C329.091 558.763 331.375 559.191 334.048 559.355C334.292 559.37 334.479 559.604 334.466 559.879C334.453 560.153 334.244 560.363 334 560.349C331.261 560.181 328.913 559.741 326.94 559.111C326.034 558.822 325.267 558.512 324.634 558.2C324.248 558.01 323.988 557.859 323.853 557.767C323.643 557.625 323.576 557.319 323.702 557.084Z" fill="#DD936F"/>
<rect x="-41.2136" y="592.43" width="133.129" height="133.129" fill="#D6E4FF"/>
</g>
<defs>
<clipPath id="clip0">
<rect width="1366" height="672" fill="white"/>
</clipPath>
</defs>
</svg>
